STARTFONT 2.1
FONT -FontForge-ITC Benguiat Gothic Std-Medium-R-Normal--32-310-75-75-P-166-ISO8859-1
SIZE 31 75 75
FONTBOUNDINGBOX 37 37 -5 -8
COMMENT "Generated by fontforge, http://fontforge.sourceforge.net"
COMMENT "Copyright 1990, 1995 , 2002Adobe Systems Incorporated. All Rights Reserved. ITC Benguiat Gothic is a registered trademark of International Typeface Corporation."
STARTPROPERTIES 40
FOUNDRY "FontForge"
FAMILY_NAME "ITC Benguiat Gothic Std"
WEIGHT_NAME "Medium"
SLANT "R"
SETWIDTH_NAME "Normal"
ADD_STYLE_NAME ""
PIXEL_SIZE 32
POINT_SIZE 310
RESOLUTION_X 75
RESOLUTION_Y 75
SPACING "P"
AVERAGE_WIDTH 166
CHARSET_REGISTRY "ISO8859"
CHARSET_ENCODING "1"
FONTNAME_REGISTRY ""
CHARSET_COLLECTIONS "ISOLatin1Encoding"
FONT_NAME "BenguiatGothicStd-Medium"
FACE_NAME "ITC Benguiat Gothic Std Medium"
COPYRIGHT "Copyright 1990, 1995 , 2002Adobe Systems Incorporated. All Rights Reserved. ITC Benguiat Gothic is a registered trademark of International Typeface Corporation."
FONT_VERSION "001.001"
FONT_ASCENT 22
FONT_DESCENT 10
UNDERLINE_POSITION -3
UNDERLINE_THICKNESS 2
X_HEIGHT 15
CAP_HEIGHT 21
RAW_ASCENT 691
RAW_DESCENT 309
NORM_SPACE 10
RELATIVE_WEIGHT 50
RELATIVE_SETWIDTH 50
SUPERSCRIPT_X 0
SUPERSCRIPT_Y 11
SUPERSCRIPT_SIZE 19
SUBSCRIPT_X 0
SUBSCRIPT_Y 2
SUBSCRIPT_SIZE 19
FIGURE_WIDTH 20
AVG_LOWERCASE_WIDTH 160
AVG_UPPERCASE_WIDTH 193
ENDPROPERTIES
CHARS 253
STARTCHAR space
ENCODING 32
SWIDTH 305 0
DWIDTH 10 0
BBX 1 1 0 0
BITMAP
00
ENDCHAR
STARTCHAR exclam
ENCODING 33
SWIDTH 278 0
DWIDTH 9 0
BBX 3 22 3 0
BITMAP
E0
E0
E0
E0
E0
E0
E0
E0
E0
E0
E0
E0
E0
E0
E0
E0
00
00
40
E0
E0
E0
ENDCHAR
STARTCHAR quotedbl
ENCODING 34
SWIDTH 333 0
DWIDTH 11 0
BBX 7 8 2 14
BITMAP
C6
CE
CE
CE
CE
CE
CE
CE
ENDCHAR
STARTCHAR numbersign
ENCODING 35
SWIDTH 611 0
DWIDTH 20 0
BBX 16 22 2 0
BITMAP
061C
0618
0618
0618
0618
0E18
0E38
7FFF
7FFF
0C30
0C30
0C30
1C30
FFFE
FFFE
1860
1860
1860
1860
3860
38E0
30E0
ENDCHAR
STARTCHAR dollar
ENCODING 36
SWIDTH 611 0
DWIDTH 20 0
BBX 14 26 2 -2
BITMAP
0600
0700
0700
0700
3FF0
FFF0
F000
C000
E000
FF80
3FF0
07F8
073C
071C
071C
071C
071C
071C
0738
7FF8
FFE0
FF80
0700
0700
0700
0600
ENDCHAR
STARTCHAR percent
ENCODING 37
SWIDTH 833 0
DWIDTH 27 0
BBX 23 22 2 0
BITMAP
1E0180
7F0180
738380
E1C300
C1C700
C0C600
C1CE00
E1CC00
739C00
7F1800
1E3800
003000
0071F0
0063FC
00E71C
00C60E
01C60E
01860E
03870E
03079C
0703F8
0200F0
ENDCHAR
STARTCHAR ampersand
ENCODING 38
SWIDTH 778 0
DWIDTH 25 0
BBX 22 22 2 0
BITMAP
03E000
0FF000
1FF800
1C3800
381C00
381CC0
1C18C0
1C38E0
1E78E0
3FF0E0
73C0E0
E1E0E0
E0F0E0
E03CE0
E01FC0
E00FC0
E007C0
F007E0
780FF0
3FFE78
1FFC3C
07E01C
ENDCHAR
STARTCHAR quotesingle
ENCODING 39
SWIDTH 222 0
DWIDTH 7 0
BBX 3 8 2 14
BITMAP
60
E0
E0
E0
E0
E0
E0
E0
ENDCHAR
STARTCHAR parenleft
ENCODING 40
SWIDTH 389 0
DWIDTH 12 0
BBX 9 29 2 -7
BITMAP
0380
0700
0E00
1C00
1C00
3800
3800
7000
7000
7000
6000
E000
E000
E000
E000
E000
E000
6000
6000
7000
7000
3000
3800
1800
1C00
0E00
0F00
0700
0300
ENDCHAR
STARTCHAR parenright
ENCODING 41
SWIDTH 389 0
DWIDTH 12 0
BBX 8 29 2 -7
BITMAP
E0
E0
70
38
1C
1C
0E
0E
0E
07
07
07
07
07
07
07
07
07
07
06
0E
0E
1C
1C
38
38
70
E0
C0
ENDCHAR
STARTCHAR asterisk
ENCODING 42
SWIDTH 333 0
DWIDTH 11 0
BBX 8 9 1 13
BITMAP
18
18
DB
FF
3E
7F
FB
18
18
ENDCHAR
STARTCHAR plus
ENCODING 43
SWIDTH 600 0
DWIDTH 19 0
BBX 17 16 1 0
BITMAP
01C000
01C000
01C000
01C000
01C000
01C000
01C000
FFFF80
FFFF80
FFFF80
01C000
01C000
01C000
01C000
01C000
01C000
ENDCHAR
STARTCHAR comma
ENCODING 44
SWIDTH 305 0
DWIDTH 10 0
BBX 5 8 2 -4
BITMAP
38
78
70
70
E0
E0
C0
C0
ENDCHAR
STARTCHAR hyphen
ENCODING 45
SWIDTH 333 0
DWIDTH 11 0
BBX 8 2 1 7
BITMAP
FF
7F
ENDCHAR
STARTCHAR period
ENCODING 46
SWIDTH 305 0
DWIDTH 10 0
BBX 3 3 3 0
BITMAP
E0
E0
60
ENDCHAR
STARTCHAR slash
ENCODING 47
SWIDTH 278 0
DWIDTH 9 0
BBX 11 22 -1 0
BITMAP
0060
00E0
00E0
01C0
01C0
0380
0380
0300
0700
0600
0E00
0E00
1C00
1C00
1800
3800
3000
7000
7000
E000
E000
C000
ENDCHAR
STARTCHAR zero
ENCODING 48
SWIDTH 611 0
DWIDTH 20 0
BBX 17 22 1 0
BITMAP
03E000
0FF800
1FFC00
1C1E00
380F00
700700
700300
700380
E00380
E00380
E00380
E00380
E00380
E00380
700380
700300
700700
380F00
1C1E00
1FFC00
0FF800
03E000
ENDCHAR
STARTCHAR one
ENCODING 49
SWIDTH 611 0
DWIDTH 20 0
BBX 11 22 5 0
BITMAP
0E00
FE00
FE00
6E00
0E00
0E00
0E00
0E00
0E00
0E00
0E00
0E00
0E00
0E00
0E00
0E00
0E00
0E00
0E00
7FC0
FFE0
FFE0
ENDCHAR
STARTCHAR two
ENCODING 50
SWIDTH 611 0
DWIDTH 20 0
BBX 15 22 2 0
BITMAP
7FE0
7FF8
3FFC
001C
001C
001C
001C
001C
003C
0078
01F0
07E0
0F80
1F00
7C00
7800
F000
E000
E000
FFFC
FFFE
7FFE
ENDCHAR
STARTCHAR three
ENCODING 51
SWIDTH 611 0
DWIDTH 20 0
BBX 15 22 2 0
BITMAP
FFF8
FFF8
7FF8
01E0
03C0
0F00
1E00
3FE0
3FF8
007C
001C
000E
000E
000E
0006
000E
000E
001E
003C
7FFC
FFF0
FFC0
ENDCHAR
STARTCHAR four
ENCODING 52
SWIDTH 611 0
DWIDTH 20 0
BBX 17 22 1 0
BITMAP
003800
00FC00
01FC00
03DC00
079C00
0F1C00
1E1C00
1C1C00
381C00
381C00
701C00
701C00
701C00
601C00
FFFF80
7FFF80
001C00
001C00
001C00
001C00
001C00
001800
ENDCHAR
STARTCHAR five
ENCODING 53
SWIDTH 611 0
DWIDTH 20 0
BBX 16 22 2 0
BITMAP
3FF8
7FFC
7FF0
7000
7000
7E00
7FE0
7FF8
00FC
001E
000E
000F
0007
0007
0007
0007
000F
000E
001E
7FFC
FFF8
FFE0
ENDCHAR
STARTCHAR six
ENCODING 54
SWIDTH 611 0
DWIDTH 20 0
BBX 18 22 1 0
BITMAP
03FF00
0FFF00
1FFE00
3C0000
380000
700000
706000
73FC00
EFFE00
EE0F00
FC0780
F80380
F00380
F003C0
7001C0
700380
780380
380780
3C0F00
1FFE00
0FFC00
03F000
ENDCHAR
STARTCHAR seven
ENCODING 55
SWIDTH 611 0
DWIDTH 20 0
BBX 13 22 3 0
BITMAP
FFF8
FFF8
0038
0038
0038
0038
0070
0070
00E0
01C0
01C0
0380
0780
0700
0E00
1E00
1C00
1C00
1C00
1800
1800
1800
ENDCHAR
STARTCHAR eight
ENCODING 56
SWIDTH 611 0
DWIDTH 20 0
BBX 17 22 1 0
BITMAP
03F000
0FFC00
1F7E00
3C0E00
380700
300700
380700
380E00
3C1E00
1FFC00
0FFC00
3F7E00
780700
700380
700380
E00380
700380
700380
780700
3F7E00
1FFC00
07F000
ENDCHAR
STARTCHAR nine
ENCODING 57
SWIDTH 611 0
DWIDTH 20 0
BBX 17 22 1 0
BITMAP
07E000
1FF800
3FFE00
781E00
700F00
E00700
E00780
E00780
E00780
E00780
F00780
700F80
7C3F80
3FFB80
0FF380
038380
000700
000F00
001E00
3FFC00
7FF800
7FF000
ENDCHAR
STARTCHAR colon
ENCODING 58
SWIDTH 305 0
DWIDTH 10 0
BBX 3 13 3 0
BITMAP
E0
E0
60
00
00
00
00
00
00
00
E0
E0
60
ENDCHAR
STARTCHAR semicolon
ENCODING 59
SWIDTH 305 0
DWIDTH 10 0
BBX 6 17 1 -4
BITMAP
18
1C
1C
00
00
00
00
00
00
18
38
38
70
70
60
E0
C0
ENDCHAR
STARTCHAR less
ENCODING 60
SWIDTH 600 0
DWIDTH 19 0
BBX 17 16 1 0
BITMAP
000080
000780
001F80
00FE00
03F000
0FC000
7E0000
F80000
F80000
7E0000
0FC000
03F000
00FE00
001F80
000780
000080
ENDCHAR
STARTCHAR equal
ENCODING 61
SWIDTH 600 0
DWIDTH 19 0
BBX 17 10 1 3
BITMAP
FFFF80
FFFF80
FFFF80
000000
000000
000000
000000
FFFF80
FFFF80
FFFF80
ENDCHAR
STARTCHAR greater
ENCODING 62
SWIDTH 600 0
DWIDTH 19 0
BBX 17 16 1 0
BITMAP
C00000
F00000
FC0000
1F8000
07E000
01F800
003F00
000F80
000F80
003F00
01F800
07E000
1F8000
FC0000
F00000
C00000
ENDCHAR
STARTCHAR question
ENCODING 63
SWIDTH 500 0
DWIDTH 16 0
BBX 13 22 1 0
BITMAP
FFC0
FFF0
7FF0
0038
0038
0038
0038
0038
0070
01F0
03E0
0780
0F00
0E00
0C00
0C00
0400
0000
0000
1C00
1C00
0C00
ENDCHAR
STARTCHAR at
ENCODING 64
SWIDTH 800 0
DWIDTH 26 0
BBX 22 22 2 0
BITMAP
00FE00
07FF80
0F03E0
1C00F0
380038
707818
61FD9C
E3EF8C
C7878C
C7030C
C6030C
CE031C
CE0718
CE0E38
E71E70
67FFE0
73E780
380038
1C0070
0F03E0
03FF80
00FE00
ENDCHAR
STARTCHAR A
ENCODING 65
SWIDTH 667 0
DWIDTH 21 0
BBX 19 22 1 0
BITMAP
00E000
01F000
03F000
03B800
073C00
071C00
0E0E00
0E0E00
1C0700
1F8700
3FF380
3BFB80
383F80
700FC0
7003C0
7003C0
7001E0
E001E0
E000E0
E000E0
E000E0
E00060
ENDCHAR
STARTCHAR B
ENCODING 66
SWIDTH 611 0
DWIDTH 20 0
BBX 17 22 2 0
BITMAP
FFF800
FFFC00
FFFE00
E00E00
E00E00
E00E00
FE0E00
FFDC00
FFFC00
E0FC00
E03E00
E00E00
E00700
E00700
E00780
E00380
E00380
E00700
E00F00
FFFF00
FFFE00
7FF800
ENDCHAR
STARTCHAR C
ENCODING 67
SWIDTH 611 0
DWIDTH 20 0
BBX 18 22 1 0
BITMAP
03FF80
0FFF80
1FFF00
3C0000
780000
700000
F00000
F00000
E00000
E00000
F00000
700000
700000
780000
380000
3C0000
1E0000
0F0000
07E000
03FF80
00FFC0
003F80
ENDCHAR
STARTCHAR D
ENCODING 68
SWIDTH 667 0
DWIDTH 21 0
BBX 18 22 2 0
BITMAP
7E0000
FFC000
FFF000
E0FC00
E03E00
E01E00
E00F00
E00780
E00380
E00380
E001C0
E001C0
E001C0
E001C0
E001C0
E001C0
E00380
E00380
E00700
FFFF00
FFFE00
FFF000
ENDCHAR
STARTCHAR E
ENCODING 69
SWIDTH 556 0
DWIDTH 18 0
BBX 15 22 2 0
BITMAP
7FFC
FFFE
FFFC
E000
E000
E000
FFFC
FFFC
FFF8
E000
E000
E000
E000
E000
E000
E000
E000
E000
E000
FFF8
FFFE
7FFC
ENDCHAR
STARTCHAR F
ENCODING 70
SWIDTH 500 0
DWIDTH 16 0
BBX 14 22 2 0
BITMAP
7FFC
FFFC
FFF8
E000
E000
E000
FFF8
FFF8
FFF0
E000
E000
E000
E000
E000
E000
E000
E000
E000
E000
E000
E000
6000
ENDCHAR
STARTCHAR G
ENCODING 71
SWIDTH 667 0
DWIDTH 21 0
BBX 19 22 1 0
BITMAP
07FFC0
0FFFC0
3FFF80
3C0000
780000
700000
F03FC0
E07FE0
E03FE0
E000E0
E000E0
E000E0
F000E0
7000E0
7800E0
3800E0
3E00E0
1F00E0
0FC0E0
03FFE0
00FFE0
001FC0
ENDCHAR
STARTCHAR H
ENCODING 72
SWIDTH 611 0
DWIDTH 20 0
BBX 15 22 2 0
BITMAP
6006
E00E
E00E
E00E
E00E
E00E
FFFE
FFFE
E00E
E00E
E00E
E00E
E00E
E00E
E00E
E00E
E00E
E00E
E00E
E00E
E00E
6006
ENDCHAR
STARTCHAR I
ENCODING 73
SWIDTH 222 0
DWIDTH 7 0
BBX 3 22 2 0
BITMAP
E0
E0
E0
E0
E0
E0
E0
E0
E0
E0
E0
E0
E0
E0
E0
E0
E0
E0
E0
E0
E0
E0
ENDCHAR
STARTCHAR J
ENCODING 74
SWIDTH 444 0
DWIDTH 14 0
BBX 13 22 -1 0
BITMAP
0030
0038
0038
0038
0038
0038
0038
0038
0038
0038
0038
0038
0038
0038
0038
0038
0038
0078
E0F0
FFF0
7FE0
3F80
ENDCHAR
STARTCHAR K
ENCODING 75
SWIDTH 611 0
DWIDTH 20 0
BBX 17 22 2 0
BITMAP
600600
E00E00
E00E00
E01E00
E03C00
F07800
FFF000
FFC000
E3E000
E0F000
E07800
E03C00
E01C00
E00E00
E00E00
E00700
E00700
E00700
E00380
E00380
E00380
600300
ENDCHAR
STARTCHAR L
ENCODING 76
SWIDTH 444 0
DWIDTH 14 0
BBX 11 22 3 0
BITMAP
C000
C000
C000
C000
C000
C000
C000
C000
C000
C000
C000
C000
C000
C000
C000
C000
C000
C000
C000
FFC0
FFE0
FFE0
ENDCHAR
STARTCHAR M
ENCODING 77
SWIDTH 722 0
DWIDTH 23 0
BBX 19 22 2 0
BITMAP
180300
380380
3C0780
3C07C0
7E0FC0
7E0FC0
771DC0
67BCC0
63B8C0
61F8C0
61F0C0
60E0E0
E000E0
E000E0
E000E0
E000E0
E000E0
E000E0
E000E0
E000E0
E000E0
E00060
ENDCHAR
STARTCHAR N
ENCODING 78
SWIDTH 611 0
DWIDTH 20 0
BBX 15 22 2 0
BITMAP
6006
F00E
F80E
FC0E
EE0E
EF0E
E7CE
E1FE
E07E
E00E
E00E
E00E
E00E
E00E
E00E
E00E
E00E
E00E
E00E
E00E
E00E
6006
ENDCHAR
STARTCHAR O
ENCODING 79
SWIDTH 722 0
DWIDTH 23 0
BBX 21 22 1 0
BITMAP
01FC00
07FF00
0FFF80
1E03C0
3C01E0
3800E0
780070
700070
700070
F00078
E00038
E00038
F00038
700078
700070
700070
3800E0
3C01E0
1E03C0
0FFF80
07FF00
01FC00
ENDCHAR
STARTCHAR P
ENCODING 80
SWIDTH 556 0
DWIDTH 18 0
BBX 15 22 3 0
BITMAP
FFF8
FFFC
FFFC
C01E
C00E
C01C
C03C
C0F8
C7F0
FFC0
FF00
F800
C000
C000
C000
C000
C000
C000
C000
C000
C000
C000
ENDCHAR
STARTCHAR Q
ENCODING 81
SWIDTH 722 0
DWIDTH 23 0
BBX 21 26 1 -4
BITMAP
01FC00
07FF00
0FFF80
1E03C0
3C01E0
3800E0
700070
700070
700070
F00078
E00038
E00038
F00078
F00078
73E070
73F070
7BF8E0
3C3DE0
1E1FC0
0FFF80
07FF00
01FF00
000780
0003F8
0001F8
000020
ENDCHAR
STARTCHAR R
ENCODING 82
SWIDTH 667 0
DWIDTH 21 0
BBX 18 22 2 0
BITMAP
7FFC00
FFFE00
FFFF00
E00700
E00780
E00700
FE0700
FFCF00
FFFE00
E0FC00
E03C00
E01E00
E00F00
E00700
E00380
E00380
E003C0
E001C0
E001C0
E001C0
E001C0
6000C0
ENDCHAR
STARTCHAR S
ENCODING 83
SWIDTH 611 0
DWIDTH 20 0
BBX 17 22 1 0
BITMAP
1FFC00
7FFE00
7FFC00
E00000
E00000
F00000
7F8000
3FFC00
0FFE00
003F00
000780
000380
000380
000380
000380
000380
000380
000780
000F00
7FFE00
FFFC00
FFF000
ENDCHAR
STARTCHAR T
ENCODING 84
SWIDTH 500 0
DWIDTH 16 0
BBX 16 22 0 0
BITMAP
FFFF
FFFF
7FFE
0180
0180
0180
0180
0180
0180
0180
0180
0180
0180
0180
0180
0180
0180
0180
0180
0180
0180
0180
ENDCHAR
STARTCHAR U
ENCODING 85
SWIDTH 611 0
DWIDTH 20 0
BBX 17 22 1 0
BITMAP
300600
380700
300700
300700
700700
700700
700300
700300
700380
600380
600380
E00380
E00380
E00380
E00380
E00380
F00380
700780
7C0F00
3FFE00
1FFC00
03F000
ENDCHAR
STARTCHAR V
ENCODING 86
SWIDTH 611 0
DWIDTH 20 0
BBX 18 22 1 0
BITMAP
C00180
E001C0
E001C0
E00380
E00380
E00380
700380
700380
700700
300700
380700
380E00
180E00
1C0C00
1C1C00
0E1C00
0E3800
073800
077000
03F000
01E000
00C000
ENDCHAR
STARTCHAR W
ENCODING 87
SWIDTH 833 0
DWIDTH 27 0
BBX 24 22 1 0
BITMAP
601803
E01C03
E01C03
E01C03
E03C07
E03C07
E03C07
603E07
703E07
703E07
707E06
70760E
30770E
38670E
38E70C
38E31C
1CC39C
1DC3B8
0FC1F8
0F81F8
0780F0
070060
ENDCHAR
STARTCHAR X
ENCODING 88
SWIDTH 611 0
DWIDTH 20 0
BBX 18 22 1 0
BITMAP
700300
700700
780F00
3C0F00
1E1E00
0F3C00
07F800
03F000
03E000
07F000
0F3800
1E1C00
1C0E00
380E00
780700
700700
700380
F00380
E00380
E003C0
E001C0
C00180
ENDCHAR
STARTCHAR Y
ENCODING 89
SWIDTH 556 0
DWIDTH 18 0
BBX 16 22 1 0
BITMAP
C007
E007
E007
F00E
700E
781C
381C
1C38
1E78
0FF0
07E0
0380
0380
0380
0380
0380
0380
0380
0380
0380
0380
0180
ENDCHAR
STARTCHAR Z
ENCODING 90
SWIDTH 500 0
DWIDTH 16 0
BBX 14 22 1 0
BITMAP
7FF8
7FF8
3FFC
0018
0038
0038
0078
0070
00E0
01E0
03C0
0780
0F00
1E00
3C00
7800
7000
F000
E000
FFF8
FFFC
7FFC
ENDCHAR
STARTCHAR bracketleft
ENCODING 91
SWIDTH 389 0
DWIDTH 12 0
BBX 7 30 3 -7
BITMAP
FE
FE
C0
C0
C0
C0
C0
C0
C0
C0
C0
C0
C0
C0
C0
C0
C0
C0
C0
C0
C0
C0
C0
C0
C0
C0
C0
C0
FE
FE
ENDCHAR
STARTCHAR backslash
ENCODING 92
SWIDTH 278 0
DWIDTH 9 0
BBX 11 22 -1 0
BITMAP
C000
E000
E000
7000
7000
3000
3800
1800
1C00
1C00
0E00
0E00
0600
0700
0300
0380
0380
01C0
01C0
00E0
00E0
0060
ENDCHAR
STARTCHAR bracketright
ENCODING 93
SWIDTH 389 0
DWIDTH 12 0
BBX 8 30 2 -7
BITMAP
FE
7F
07
07
07
07
07
07
07
07
07
07
07
07
07
07
07
07
07
07
07
07
07
07
07
07
07
07
7F
FE
ENDCHAR
STARTCHAR asciicircum
ENCODING 94
SWIDTH 600 0
DWIDTH 19 0
BBX 15 13 2 9
BITMAP
0380
03C0
07C0
06E0
0EE0
0C70
1C70
1838
3838
301C
701C
600E
E00E
ENDCHAR
STARTCHAR underscore
ENCODING 95
SWIDTH 500 0
DWIDTH 16 0
BBX 16 2 0 -4
BITMAP
FFFF
FFFF
ENDCHAR
STARTCHAR grave
ENCODING 96
SWIDTH 222 0
DWIDTH 7 0
BBX 9 5 -1 18
BITMAP
4000
F000
FE00
1F80
0380
ENDCHAR
STARTCHAR a
ENCODING 97
SWIDTH 500 0
DWIDTH 16 0
BBX 14 16 0 0
BITMAP
3FF0
3FF8
1FFC
001C
001C
01FC
1FFC
3F1C
781C
701C
E01C
E01C
701C
787C
3FFC
0F8C
ENDCHAR
STARTCHAR b
ENCODING 98
SWIDTH 556 0
DWIDTH 18 0
BBX 15 22 2 0
BITMAP
C000
E000
E000
E000
E000
E000
FE00
FFC0
FFF0
E0F8
E078
E03C
E01C
E01C
E00E
E00E
E01E
E01C
E03C
FFF8
FFF0
FFC0
ENDCHAR
STARTCHAR c
ENCODING 99
SWIDTH 500 0
DWIDTH 16 0
BBX 15 16 1 0
BITMAP
0FFC
1FFC
3F00
7800
7000
E000
E000
E000
E000
7000
7000
7800
3C00
1FFC
07FE
03FC
ENDCHAR
STARTCHAR d
ENCODING 100
SWIDTH 556 0
DWIDTH 18 0
BBX 15 22 1 0
BITMAP
000C
000E
000E
000E
000E
000E
01FE
07FE
1FFE
3E0E
780E
700E
700E
E00E
E00E
E00E
E00E
F00E
700E
7FFE
3FFE
07FC
ENDCHAR
STARTCHAR e
ENCODING 101
SWIDTH 556 0
DWIDTH 18 0
BBX 16 16 1 0
BITMAP
07E0
1FF8
3F7C
780E
700E
7006
FFFF
FFFE
E000
E000
7000
7000
7800
3F00
1FFF
07FE
ENDCHAR
STARTCHAR f
ENCODING 102
SWIDTH 333 0
DWIDTH 11 0
BBX 11 22 1 0
BITMAP
07E0
1FE0
1FC0
1C00
1800
1800
FF80
FFC0
7F80
1800
1800
1800
1800
1800
1800
1800
1800
1800
1800
1800
1800
1800
ENDCHAR
STARTCHAR g
ENCODING 103
SWIDTH 556 0
DWIDTH 18 0
BBX 17 23 1 -7
BITMAP
01FE00
0FFF00
1FDE00
3C1C00
781C00
701C00
601C00
E01C00
E01C00
E01C00
E01C00
E01C00
701C00
781C00
3FFE00
0FFF00
000780
000380
000380
C00700
FE7F00
7FFC00
1FF000
ENDCHAR
STARTCHAR h
ENCODING 104
SWIDTH 556 0
DWIDTH 18 0
BBX 14 22 2 0
BITMAP
E000
E000
E000
E000
E000
E000
E7C0
FFF0
FFF8
F838
F03C
E01C
E01C
E01C
E01C
E01C
E01C
E01C
E01C
E01C
E01C
E018
ENDCHAR
STARTCHAR i
ENCODING 105
SWIDTH 222 0
DWIDTH 7 0
BBX 3 22 2 0
BITMAP
40
E0
E0
E0
00
00
E0
E0
E0
E0
E0
E0
E0
E0
E0
E0
E0
E0
E0
E0
E0
E0
ENDCHAR
STARTCHAR j
ENCODING 106
SWIDTH 222 0
DWIDTH 7 0
BBX 10 29 -5 -7
BITMAP
0080
01C0
01C0
01C0
0000
0000
01C0
01C0
01C0
01C0
01C0
01C0
01C0
01C0
01C0
01C0
01C0
01C0
01C0
01C0
01C0
01C0
01C0
01C0
01C0
03C0
6F80
FF00
FE00
ENDCHAR
STARTCHAR k
ENCODING 107
SWIDTH 500 0
DWIDTH 16 0
BBX 14 22 2 0
BITMAP
E000
E000
E000
E000
E000
E000
E030
E070
E070
E0E0
E3C0
FF80
FF80
E3E0
E0F0
E070
E038
E038
E038
E018
E01C
E018
ENDCHAR
STARTCHAR l
ENCODING 108
SWIDTH 222 0
DWIDTH 7 0
BBX 3 22 2 0
BITMAP
E0
E0
E0
E0
E0
E0
E0
E0
E0
E0
E0
E0
E0
E0
E0
E0
E0
E0
E0
E0
E0
E0
ENDCHAR
STARTCHAR m
ENCODING 109
SWIDTH 889 0
DWIDTH 28 0
BBX 24 16 2 0
BITMAP
C7C0F8
FFF3FE
FFF7FE
F83E0F
F03C07
E01C07
E01C03
E01C03
E01C03
E01C03
E01C03
E01C03
E01C03
E01C03
E01C03
E01803
ENDCHAR
STARTCHAR n
ENCODING 110
SWIDTH 556 0
DWIDTH 18 0
BBX 14 16 2 0
BITMAP
C7C0
EFF0
FFF8
F838
F03C
E01C
E01C
E01C
E01C
E01C
E01C
E01C
E01C
E01C
E01C
E018
ENDCHAR
STARTCHAR o
ENCODING 111
SWIDTH 556 0
DWIDTH 18 0
BBX 16 16 1 0
BITMAP
07C0
1FF0
3FF8
381C
700E
600E
E006
E007
E007
E006
600E
700E
781C
3FF8
1FF0
07E0
ENDCHAR
STARTCHAR p
ENCODING 112
SWIDTH 556 0
DWIDTH 18 0
BBX 15 23 2 -7
BITMAP
FF00
FFC0
FFF0
E0F8
E038
E01C
E01C
E01C
E00E
E00E
E01C
E01C
E03C
FFF8
FFF0
FFC0
E000
E000
E000
E000
E000
E000
C000
ENDCHAR
STARTCHAR q
ENCODING 113
SWIDTH 556 0
DWIDTH 18 0
BBX 15 23 1 -7
BITMAP
01FC
07FE
1FFE
3E0E
780E
700E
F00E
E00E
E00E
E00E
E00E
700E
780E
3FFE
1FFE
07FE
000E
000E
000E
000E
000E
000E
000E
ENDCHAR
STARTCHAR r
ENCODING 114
SWIDTH 333 0
DWIDTH 11 0
BBX 9 16 2 0
BITMAP
E780
EF80
FF00
F000
E000
E000
E000
E000
E000
E000
E000
E000
E000
E000
E000
E000
ENDCHAR
STARTCHAR s
ENCODING 115
SWIDTH 500 0
DWIDTH 16 0
BBX 14 16 1 0
BITMAP
3FF0
7FF8
FFF0
E000
F000
7FC0
3FF0
03F8
001C
001C
001C
001C
001C
7FF8
FFF0
FFE0
ENDCHAR
STARTCHAR t
ENCODING 116
SWIDTH 333 0
DWIDTH 11 0
BBX 10 20 1 0
BITMAP
1800
3800
3800
3800
FF80
FF80
7F80
3800
3800
3800
3800
3800
3800
3800
3800
3800
3800
1F80
1FC0
0FC0
ENDCHAR
STARTCHAR u
ENCODING 117
SWIDTH 556 0
DWIDTH 18 0
BBX 14 16 2 0
BITMAP
E018
E01C
E01C
E01C
E01C
E01C
E01C
E01C
E01C
E01C
E01C
E03C
F07C
7FFC
3FDC
1F98
ENDCHAR
STARTCHAR v
ENCODING 118
SWIDTH 500 0
DWIDTH 16 0
BBX 14 16 1 0
BITMAP
C00C
C00C
C01C
E01C
E01C
E018
7038
7038
3030
3870
3870
1CE0
1FC0
0FC0
0780
0300
ENDCHAR
STARTCHAR w
ENCODING 119
SWIDTH 722 0
DWIDTH 23 0
BBX 21 16 1 0
BITMAP
C02018
E07038
E07038
E07038
E07038
E0F838
E0D838
60D838
71DC30
71DC70
718C70
3B8E60
3B8EE0
1F07E0
1E03C0
0E0180
ENDCHAR
STARTCHAR x
ENCODING 120
SWIDTH 500 0
DWIDTH 16 0
BBX 14 16 1 0
BITMAP
6018
6018
7038
7038
3870
1FE0
0FC0
0FC0
1FE0
3870
7038
F03C
E01C
E01C
E01C
C00C
ENDCHAR
STARTCHAR y
ENCODING 121
SWIDTH 500 0
DWIDTH 16 0
BBX 15 23 1 -7
BITMAP
C00C
E00E
E00E
E01C
E01C
E01C
701C
7038
7038
3838
3870
1C70
1CE0
0FE0
0FC0
0780
0780
0700
0E00
1E00
1C00
3800
3800
ENDCHAR
STARTCHAR z
ENCODING 122
SWIDTH 444 0
DWIDTH 14 0
BBX 13 16 1 0
BITMAP
7FF0
7FF0
3FF0
0070
00F0
01E0
03C0
0F80
1E00
3C00
7800
F000
E000
FFE0
FFF8
FFF0
ENDCHAR
STARTCHAR braceleft
ENCODING 123
SWIDTH 389 0
DWIDTH 12 0
BBX 10 31 1 -7
BITMAP
07C0
0FC0
1C00
1C00
1C00
1C00
1C00
1C00
1C00
1C00
1C00
1C00
1800
3800
F000
F000
3800
3800
1C00
1C00
1C00
1C00
1C00
1C00
1C00
1C00
1C00
1C00
1C00
0FC0
07C0
ENDCHAR
STARTCHAR bar
ENCODING 124
SWIDTH 222 0
DWIDTH 7 0
BBX 3 32 2 -8
BITMAP
E0
E0
E0
E0
E0
E0
E0
E0
E0
E0
E0
E0
E0
E0
E0
E0
E0
E0
E0
E0
E0
E0
E0
E0
E0
E0
E0
E0
E0
E0
E0
E0
ENDCHAR
STARTCHAR braceright
ENCODING 125
SWIDTH 389 0
DWIDTH 12 0
BBX 10 31 1 -7
BITMAP
7C00
FE00
0E00
0600
0600
0600
0600
0600
0600
0600
0600
0600
0700
0780
03C0
03C0
0780
0700
0700
0600
0600
0600
0600
0600
0600
0600
0600
0600
0E00
7E00
FC00
ENDCHAR
STARTCHAR asciitilde
ENCODING 126
SWIDTH 600 0
DWIDTH 19 0
BBX 15 4 2 6
BITMAP
3F06
7FFE
E3FC
4078
ENDCHAR
STARTCHAR uni00A0
ENCODING 160
SWIDTH 305 0
DWIDTH 10 0
BBX 1 1 0 0
BITMAP
00
ENDCHAR
STARTCHAR exclamdown
ENCODING 161
SWIDTH 278 0
DWIDTH 9 0
BBX 3 23 3 -7
BITMAP
E0
E0
E0
40
00
00
C0
E0
E0
E0
E0
E0
E0
E0
E0
E0
E0
E0
E0
E0
E0
E0
E0
ENDCHAR
STARTCHAR cent
ENCODING 162
SWIDTH 611 0
DWIDTH 20 0
BBX 13 24 3 0
BITMAP
0100
0380
0380
0380
0380
1FF0
3FF0
7B80
F380
E380
E380
E380
E380
E380
7380
7B80
3F80
1FF0
0FF8
0380
0380
0380
0380
0380
ENDCHAR
STARTCHAR sterling
ENCODING 163
SWIDTH 611 0
DWIDTH 20 0
BBX 18 22 0 0
BITMAP
003F00
00FFC0
01FFC0
01C000
038000
038000
038000
038000
0FFE00
1FFF00
1FFF00
038000
038000
038000
038000
038000
038000
030000
070000
7FFF00
FFFF80
F0FF00
ENDCHAR
STARTCHAR currency
ENCODING 164
SWIDTH 611 0
DWIDTH 20 0
BBX 16 16 2 3
BITMAP
47E2
FFF7
7EFE
781C
700E
E00E
E007
C007
C007
E007
E00E
700E
781C
7EFE
FFF7
47E2
ENDCHAR
STARTCHAR yen
ENCODING 165
SWIDTH 611 0
DWIDTH 20 0
BBX 17 22 1 0
BITMAP
600380
700380
700780
700700
380700
380E00
1C1E00
7E1F80
FF3F80
7FFF00
03F000
01C000
7FFF00
7FFF00
3FFF00
01C000
01C000
01C000
01C000
01C000
01C000
00C000
ENDCHAR
STARTCHAR brokenbar
ENCODING 166
SWIDTH 222 0
DWIDTH 7 0
BBX 3 27 2 -6
BITMAP
E0
E0
E0
E0
E0
E0
E0
E0
E0
E0
E0
00
00
00
00
00
E0
E0
E0
E0
E0
E0
E0
E0
E0
E0
E0
ENDCHAR
STARTCHAR section
ENCODING 167
SWIDTH 500 0
DWIDTH 16 0
BBX 14 22 1 0
BITMAP
1FF0
3FF0
7FE0
7000
7000
7C00
7F80
FFF0
E3F8
E0F8
FC1C
7F1C
1FFC
03F8
00F8
0038
0038
0038
0038
7FF0
FFF0
7FC0
ENDCHAR
STARTCHAR dieresis
ENCODING 168
SWIDTH 222 0
DWIDTH 7 0
BBX 11 3 -2 19
BITMAP
60C0
F1E0
F1E0
ENDCHAR
STARTCHAR copyright
ENCODING 169
SWIDTH 800 0
DWIDTH 26 0
BBX 22 22 2 0
BITMAP
01FC00
07FF00
0F07C0
1C00E0
38F870
71FE38
638738
E70318
C6039C
C6001C
CE000C
CE000C
C6001C
C6039C
E70318
E38718
71FE38
30FC70
1C00E0
0F07C0
07FF80
01FC00
ENDCHAR
STARTCHAR ordfeminine
ENCODING 170
SWIDTH 300 0
DWIDTH 10 0
BBX 9 10 0 12
BITMAP
7F00
7F80
0180
1F80
7F80
E180
C180
C180
F780
7D80
ENDCHAR
STARTCHAR guillemotleft
ENCODING 171
SWIDTH 444 0
DWIDTH 14 0
BBX 11 12 1 2
BITMAP
1860
18E0
38C0
71C0
7180
E380
E380
71C0
31C0
38C0
18E0
1860
ENDCHAR
STARTCHAR logicalnot
ENCODING 172
SWIDTH 600 0
DWIDTH 19 0
BBX 17 9 1 4
BITMAP
FFFF80
FFFF80
FFFF80
000380
000380
000380
000380
000380
000380
ENDCHAR
STARTCHAR uni00AD
ENCODING 173
SWIDTH 333 0
DWIDTH 11 0
BBX 8 2 1 7
BITMAP
FF
7F
ENDCHAR
STARTCHAR registered
ENCODING 174
SWIDTH 800 0
DWIDTH 26 0
BBX 22 22 2 0
BITMAP
01FC00
07FF80
0F03C0
3C00E0
33FC70
73FE38
E30718
E30318
C3031C
C3071C
C3FE0C
C3F80C
C3181C
C30C1C
E30E18
630638
730330
380070
1C00E0
0F03C0
07FF00
00FC00
ENDCHAR
STARTCHAR macron
ENCODING 175
SWIDTH 222 0
DWIDTH 7 0
BBX 9 2 -1 20
BITMAP
FF80
FF80
ENDCHAR
STARTCHAR degree
ENCODING 176
SWIDTH 400 0
DWIDTH 13 0
BBX 9 9 2 13
BITMAP
3C00
7F00
E380
C180
C180
C180
E380
7F00
3C00
ENDCHAR
STARTCHAR plusminus
ENCODING 177
SWIDTH 600 0
DWIDTH 19 0
BBX 17 16 1 0
BITMAP
01C000
01C000
01C000
01C000
FFFF80
FFFF80
FFFF80
01C000
01C000
01C000
01C000
000000
000000
FFFF80
FFFF80
FFFF80
ENDCHAR
STARTCHAR twosuperior
ENCODING 178
SWIDTH 366 0
DWIDTH 12 0
BBX 9 13 1 9
BITMAP
FF00
FF80
0380
0180
0380
0700
0E00
3C00
7000
C000
C000
FF80
FF80
ENDCHAR
STARTCHAR threesuperior
ENCODING 179
SWIDTH 366 0
DWIDTH 12 0
BBX 10 13 1 9
BITMAP
FF00
FF00
0C00
3800
7E00
1F00
0180
01C0
00C0
01C0
0180
FF80
FE00
ENDCHAR
STARTCHAR acute
ENCODING 180
SWIDTH 222 0
DWIDTH 7 0
BBX 9 4 -1 18
BITMAP
0780
3F80
FE00
E000
ENDCHAR
STARTCHAR mu
ENCODING 181
SWIDTH 556 0
DWIDTH 18 0
BBX 14 23 2 -7
BITMAP
E018
E01C
E01C
E01C
E01C
E01C
E01C
E01C
E01C
E01C
E01C
E03C
F07C
FFFC
FFDC
FF98
E000
E000
E000
E000
E000
E000
E000
ENDCHAR
STARTCHAR paragraph
ENCODING 182
SWIDTH 600 0
DWIDTH 19 0
BBX 15 22 1 0
BITMAP
0FFE
3FFE
7FCE
7FCE
7FCE
FFCE
FFCE
7FCE
7FCE
3FCE
1FCE
07CE
01CE
01CE
01CE
01CE
01CE
01CE
01CE
01CE
01CE
01CE
ENDCHAR
STARTCHAR periodcentered
ENCODING 183
SWIDTH 305 0
DWIDTH 10 0
BBX 4 4 3 6
BITMAP
60
F0
E0
40
ENDCHAR
STARTCHAR cedilla
ENCODING 184
SWIDTH 222 0
DWIDTH 7 0
BBX 8 7 0 -7
BITMAP
10
10
3E
07
07
C7
7C
ENDCHAR
STARTCHAR onesuperior
ENCODING 185
SWIDTH 366 0
DWIDTH 12 0
BBX 7 13 2 9
BITMAP
78
F8
18
18
18
18
18
18
18
18
18
FE
FE
ENDCHAR
STARTCHAR ordmasculine
ENCODING 186
SWIDTH 334 0
DWIDTH 11 0
BBX 10 10 0 12
BITMAP
1E00
3F80
61C0
60C0
C0C0
C0C0
60C0
61C0
3F80
1E00
ENDCHAR
STARTCHAR guillemotright
ENCODING 187
SWIDTH 444 0
DWIDTH 14 0
BBX 11 12 2 2
BITMAP
C300
E380
7180
71C0
38C0
38E0
38E0
31C0
71C0
6380
E380
C300
ENDCHAR
STARTCHAR onequarter
ENCODING 188
SWIDTH 916 0
DWIDTH 29 0
BBX 25 22 2 0
BITMAP
78001000
F8003000
18007000
1800E000
1800C000
1801C000
18038000
18030000
18070000
180E1E00
180C3E00
FE187600
FE38E600
0070C600
00618600
00E18600
01C38600
0183FF80
0383FF80
07000600
06000600
04000600
ENDCHAR
STARTCHAR onehalf
ENCODING 189
SWIDTH 916 0
DWIDTH 29 0
BBX 25 22 2 0
BITMAP
70003000
F0007000
3000E000
3000C000
3001C000
30038000
30030000
30060000
300EFE00
301CFF00
30180380
FE380380
FE700380
00600300
00E00700
01C01E00
03807800
0300E000
0700C000
0E018000
0C01FF80
0C01FF80
ENDCHAR
STARTCHAR threequarters
ENCODING 190
SWIDTH 916 0
DWIDTH 29 0
BBX 27 22 1 0
BITMAP
7F800C00
7F801C00
06001800
1C003800
3F007000
0F806000
01C0E000
00C1C000
00E18000
00C30780
01C70F80
FF8E1980
FF0C3180
001C7180
00386180
0030C180
0070C180
00E0FFE0
00C0FFE0
01800180
03800180
03000180
ENDCHAR
STARTCHAR questiondown
ENCODING 191
SWIDTH 500 0
DWIDTH 16 0
BBX 13 23 2 -7
BITMAP
0180
01C0
01C0
0000
0000
0000
0180
0180
0380
0780
0F00
1F00
3C00
7800
F000
E000
E000
E000
E000
E000
7FF0
7FF8
1FF8
ENDCHAR
STARTCHAR Agrave
ENCODING 192
SWIDTH 667 0
DWIDTH 21 0
BBX 19 27 1 0
BITMAP
038000
07F000
01FC00
001C00
000000
00E000
01F000
03F000
03B800
073C00
071C00
0E0E00
0E0E00
1C0700
1F8700
3FF380
3BFB80
383F80
700FC0
7003C0
7003C0
7001E0
E001E0
E000E0
E000E0
E000E0
E00060
ENDCHAR
STARTCHAR Aacute
ENCODING 193
SWIDTH 667 0
DWIDTH 21 0
BBX 19 27 1 0
BITMAP
003C00
01FC00
07F000
078000
000000
00E000
01F000
03F000
03B800
073C00
071C00
0E0E00
0E0E00
1C0700
1F8700
3FF380
3BFB80
383F80
700FC0
7003C0
7003C0
7001E0
E001E0
E000E0
E000E0
E000E0
E00060
ENDCHAR
STARTCHAR Acircumflex
ENCODING 194
SWIDTH 667 0
DWIDTH 21 0
BBX 19 28 1 0
BITMAP
006000
00F000
01B800
039C00
070C00
000000
00E000
01F000
03F000
03B800
073C00
071C00
0E0E00
0E0E00
1C0700
1F8700
3FF380
3BFB80
383F80
700FC0
7003C0
7003C0
7001E0
E001E0
E000E0
E000E0
E000E0
E00060
ENDCHAR
STARTCHAR Atilde
ENCODING 195
SWIDTH 667 0
DWIDTH 21 0
BBX 19 28 1 0
BITMAP
000200
03E200
07FE00
0CFC00
080000
000000
00E000
01F000
03F000
03B800
073C00
071C00
0E0E00
0E0E00
1C0700
1F8700
3FF380
3BFB80
383F80
700FC0
7003C0
7003C0
7001E0
E001E0
E000E0
E000E0
E000E0
E00060
ENDCHAR
STARTCHAR Adieresis
ENCODING 196
SWIDTH 667 0
DWIDTH 21 0
BBX 19 26 1 0
BITMAP
070E00
0F1E00
060C00
000000
00E000
01F000
03F000
03B800
073C00
071C00
0E0E00
0E0E00
1C0700
1F8700
3FF380
3BFB80
383F80
700FC0
7003C0
7003C0
7001E0
E001E0
E000E0
E000E0
E000E0
E00060
ENDCHAR
STARTCHAR Aring
ENCODING 197
SWIDTH 667 0
DWIDTH 21 0
BBX 19 29 1 0
BITMAP
00F000
01F800
011800
010800
019800
01F000
000000
00E000
01F000
03F000
03B800
073C00
071C00
0E0E00
0E0E00
1C0700
1F8700
3FF380
3BFB80
383F80
700FC0
7003C0
7003C0
7001E0
E001E0
E000E0
E000E0
E000E0
E00060
ENDCHAR
STARTCHAR AE
ENCODING 198
SWIDTH 944 0
DWIDTH 30 0
BBX 29 22 0 0
BITMAP
0003FFF8
0007FFF8
001FFFF0
003CC000
0078C000
00F0C000
00E0FFF0
01C1FFF0
038FFFE0
073FC000
0778C000
0FE0C000
0F80C000
1F00C000
1E00C000
3C00C000
3800C000
7800C000
7000C000
7000FFF0
E000FFF8
6000FFF8
ENDCHAR
STARTCHAR Ccedilla
ENCODING 199
SWIDTH 611 0
DWIDTH 20 0
BBX 18 29 1 -7
BITMAP
03FF80
0FFF80
1FFF00
3C0000
780000
700000
F00000
F00000
E00000
E00000
F00000
700000
700000
780000
380000
3C0000
1E0000
0F0000
07E000
03FF80
00FFC0
003F80
002000
002000
007C00
000E00
000E00
018E00
00F800
ENDCHAR
STARTCHAR Egrave
ENCODING 200
SWIDTH 556 0
DWIDTH 18 0
BBX 15 28 2 0
BITMAP
0800
1E00
1FC0
07E0
0060
0000
7FFC
FFFE
FFFC
E000
E000
E000
FFFC
FFFC
FFF8
E000
E000
E000
E000
E000
E000
E000
E000
E000
E000
FFF8
FFFE
7FFC
ENDCHAR
STARTCHAR Eacute
ENCODING 201
SWIDTH 556 0
DWIDTH 18 0
BBX 15 28 2 0
BITMAP
0060
01E0
0FE0
1F80
1800
0000
7FFC
FFFE
FFFC
E000
E000
E000
FFFC
FFFC
FFF8
E000
E000
E000
E000
E000
E000
E000
E000
E000
E000
FFF8
FFFE
7FFC
ENDCHAR
STARTCHAR Ecircumflex
ENCODING 202
SWIDTH 556 0
DWIDTH 18 0
BBX 15 28 2 0
BITMAP
0300
0780
0FC0
1CE0
3870
0000
7FFC
FFFE
FFFC
E000
E000
E000
FFFC
FFFC
FFF8
E000
E000
E000
E000
E000
E000
E000
E000
E000
E000
FFF8
FFFE
7FFC
ENDCHAR
STARTCHAR Edieresis
ENCODING 203
SWIDTH 556 0
DWIDTH 18 0
BBX 15 27 2 0
BITMAP
3870
3870
3870
1020
0000
7FFC
FFFE
FFFC
E000
E000
E000
FFFC
FFFC
FFF8
E000
E000
E000
E000
E000
E000
E000
E000
E000
E000
FFF8
FFFE
7FFC
ENDCHAR
STARTCHAR Igrave
ENCODING 204
SWIDTH 222 0
DWIDTH 7 0
BBX 9 28 -1 0
BITMAP
4000
F000
FE00
1F80
0380
0000
1C00
1C00
1C00
1C00
1C00
1C00
1C00
1C00
1C00
1C00
1C00
1C00
1C00
1C00
1C00
1C00
1C00
1C00
1C00
1C00
1C00
1C00
ENDCHAR
STARTCHAR Iacute
ENCODING 205
SWIDTH 222 0
DWIDTH 7 0
BBX 9 27 -1 0
BITMAP
0780
3F80
FE00
E000
0000
1C00
1C00
1C00
1C00
1C00
1C00
1C00
1C00
1C00
1C00
1C00
1C00
1C00
1C00
1C00
1C00
1C00
1C00
1C00
1C00
1C00
1C00
ENDCHAR
STARTCHAR Icircumflex
ENCODING 206
SWIDTH 222 0
DWIDTH 7 0
BBX 9 28 -1 0
BITMAP
0C00
3E00
3700
6380
E180
0000
1C00
1C00
1C00
1C00
1C00
1C00
1C00
1C00
1C00
1C00
1C00
1C00
1C00
1C00
1C00
1C00
1C00
1C00
1C00
1C00
1C00
1C00
ENDCHAR
STARTCHAR Idieresis
ENCODING 207
SWIDTH 222 0
DWIDTH 7 0
BBX 11 27 -2 0
BITMAP
60C0
F1E0
F1E0
0000
0000
0E00
0E00
0E00
0E00
0E00
0E00
0E00
0E00
0E00
0E00
0E00
0E00
0E00
0E00
0E00
0E00
0E00
0E00
0E00
0E00
0E00
0E00
ENDCHAR
STARTCHAR Eth
ENCODING 208
SWIDTH 667 0
DWIDTH 21 0
BBX 20 22 0 0
BITMAP
1F8000
3FF000
3FFC00
383E00
380F80
380780
3803C0
3801E0
3800E0
FFE0E0
FFE070
FFE070
380070
380070
380070
380070
3800E0
3800E0
3801E0
3FFFC0
3FFF80
3FFC00
ENDCHAR
STARTCHAR Ntilde
ENCODING 209
SWIDTH 611 0
DWIDTH 20 0
BBX 15 27 2 0
BITMAP
0F88
1FF8
33F0
2000
0000
6006
F00E
F80E
FC0E
EE0E
EF0E
E7CE
E1FE
E07E
E00E
E00E
E00E
E00E
E00E
E00E
E00E
E00E
E00E
E00E
E00E
E00E
6006
ENDCHAR
STARTCHAR Ograve
ENCODING 210
SWIDTH 722 0
DWIDTH 23 0
BBX 21 27 1 0
BITMAP
03C000
03F800
00FE00
000E00
000000
01FC00
07FF00
0FFF80
1E03C0
3C01E0
3800E0
780070
700070
700070
F00078
E00038
E00038
F00038
700078
700070
700070
3800E0
3C01E0
1E03C0
0FFF80
07FF00
01FC00
ENDCHAR
STARTCHAR Oacute
ENCODING 211
SWIDTH 722 0
DWIDTH 23 0
BBX 21 27 1 0
BITMAP
001E00
00FE00
03F800
038000
000000
01FC00
07FF00
0FFF80
1E03C0
3C01E0
3800E0
780070
700070
700070
F00078
E00038
E00038
F00038
700078
700070
700070
3800E0
3C01E0
1E03C0
0FFF80
07FF00
01FC00
ENDCHAR
STARTCHAR Ocircumflex
ENCODING 212
SWIDTH 722 0
DWIDTH 23 0
BBX 21 28 1 0
BITMAP
003000
00F800
00DC00
018E00
038600
000000
01FC00
07FF00
0FFF80
1E03C0
3C01E0
3800E0
780070
700070
700070
F00078
E00038
E00038
F00038
700078
700070
700070
3800E0
3C01E0
1E03C0
0FFF80
07FF00
01FC00
ENDCHAR
STARTCHAR Otilde
ENCODING 213
SWIDTH 722 0
DWIDTH 23 0
BBX 21 28 1 0
BITMAP
000100
01E300
03FF00
067E00
040000
000000
01FC00
07FF00
0FFF80
1E03C0
3C01E0
3800E0
780070
700070
700070
F00078
E00038
E00038
F00038
700078
700070
700070
3800E0
3C01E0
1E03C0
0FFF80
07FF00
01FC00
ENDCHAR
STARTCHAR Odieresis
ENCODING 214
SWIDTH 722 0
DWIDTH 23 0
BBX 21 26 1 0
BITMAP
078F00
078F00
030600
000000
01FC00
07FF00
0FFF80
1E03C0
3C01E0
3800E0
780070
700070
700070
F00078
E00038
E00038
F00038
700078
700070
700070
3800E0
3C01E0
1E03C0
0FFF80
07FF00
01FC00
ENDCHAR
STARTCHAR multiply
ENCODING 215
SWIDTH 600 0
DWIDTH 19 0
BBX 15 16 2 0
BITMAP
4004
E00E
F01E
783C
3C78
1EF0
0FE0
07C0
07C0
0FE0
1EF0
3C78
783C
F01E
E00E
4004
ENDCHAR
STARTCHAR Oslash
ENCODING 216
SWIDTH 722 0
DWIDTH 23 0
BBX 21 27 1 -3
BITMAP
000180
000180
01FB80
07FF00
0FFF80
1E07C0
3C0FE0
380CE0
781C70
701870
703878
F03038
E07038
E06038
F0E038
70C078
71C070
798070
3B80E0
3F01E0
1F03C0
0FFF80
0FFF00
0CFC00
0C0000
180000
180000
ENDCHAR
STARTCHAR Ugrave
ENCODING 217
SWIDTH 611 0
DWIDTH 20 0
BBX 17 28 1 0
BITMAP
040000
078000
07E000
01F800
003800
000000
300600
380700
300700
300700
700700
700700
700300
700300
700380
600380
600380
E00380
E00380
E00380
E00380
E00380
F00380
700780
7C0F00
3FFE00
1FFC00
03F000
ENDCHAR
STARTCHAR Uacute
ENCODING 218
SWIDTH 611 0
DWIDTH 20 0
BBX 17 27 1 0
BITMAP
007800
03F800
0FE000
060000
000000
300600
380700
300700
300700
700700
700700
700300
700300
700380
600380
600380
E00380
E00380
E00380
E00380
E00380
F00380
700780
7C0F00
3FFE00
1FFC00
03F000
ENDCHAR
STARTCHAR Ucircumflex
ENCODING 219
SWIDTH 611 0
DWIDTH 20 0
BBX 17 28 1 0
BITMAP
00C000
01E000
037000
073800
0E1C00
000000
300600
380700
300700
300700
700700
700700
700300
700300
700380
600380
600380
E00380
E00380
E00380
E00380
E00380
F00380
700780
7C0F00
3FFE00
1FFC00
03F000
ENDCHAR
STARTCHAR Udieresis
ENCODING 220
SWIDTH 611 0
DWIDTH 20 0
BBX 17 27 1 0
BITMAP
0E1800
0E1C00
0E1C00
000000
000000
300600
380700
300700
300700
700700
700700
700300
700300
700380
600380
600380
E00380
E00380
E00380
E00380
E00380
F00380
700780
7C0F00
3FFE00
1FFC00
03F000
ENDCHAR
STARTCHAR Yacute
ENCODING 221
SWIDTH 556 0
DWIDTH 18 0
BBX 16 28 1 0
BITMAP
0010
00F0
03F8
0FC0
0E00
0000
C007
E007
E007
F00E
700E
781C
381C
1C38
1E78
0FF0
07E0
0380
0380
0380
0380
0380
0380
0380
0380
0380
0380
0180
ENDCHAR
STARTCHAR Thorn
ENCODING 222
SWIDTH 556 0
DWIDTH 18 0
BBX 15 22 3 0
BITMAP
C000
C000
C000
C000
FFF8
FFFC
FFFC
C01E
C00E
C01C
C03C
C0F8
C7F0
FFC0
FF00
F000
C000
C000
C000
C000
C000
C000
ENDCHAR
STARTCHAR germandbls
ENCODING 223
SWIDTH 556 0
DWIDTH 18 0
BBX 16 22 1 0
BITMAP
0FC0
1FF0
3EF0
3870
3870
38F0
F9E0
FBC0
7F80
3F00
3F80
3BF0
39FC
383E
380F
3807
3807
3807
380F
3FFE
3FFC
3FF0
ENDCHAR
STARTCHAR agrave
ENCODING 224
SWIDTH 500 0
DWIDTH 16 0
BBX 14 22 0 0
BITMAP
0F00
0FC0
07F0
0070
0000
0000
3FF0
3FF8
1FFC
001C
001C
01FC
1FFC
3F1C
781C
701C
E01C
E01C
701C
787C
3FFC
0F8C
ENDCHAR
STARTCHAR aacute
ENCODING 225
SWIDTH 500 0
DWIDTH 16 0
BBX 14 22 0 0
BITMAP
00F0
07F0
0FC0
0E00
0000
0000
3FF0
3FF8
1FFC
001C
001C
01FC
1FFC
3F1C
781C
701C
E01C
E01C
701C
787C
3FFC
0F8C
ENDCHAR
STARTCHAR acircumflex
ENCODING 226
SWIDTH 500 0
DWIDTH 16 0
BBX 14 23 0 0
BITMAP
0180
03C0
07E0
0E70
1C38
0000
0000
3FF0
3FF8
1FFC
001C
001C
01FC
1FFC
3F1C
781C
701C
E01C
E01C
701C
787C
3FFC
0F8C
ENDCHAR
STARTCHAR atilde
ENCODING 227
SWIDTH 500 0
DWIDTH 16 0
BBX 14 22 0 0
BITMAP
0F88
1FF8
33F0
2000
0000
0000
3FF0
3FF8
1FFC
001C
001C
01FC
1FFC
3F1C
781C
701C
E01C
E01C
701C
787C
3FFC
0F8C
ENDCHAR
STARTCHAR adieresis
ENCODING 228
SWIDTH 500 0
DWIDTH 16 0
BBX 14 22 0 0
BITMAP
1C30
1C38
1C38
0800
0000
0000
3FF0
3FF8
1FFC
001C
001C
01FC
1FFC
3F1C
781C
701C
E01C
E01C
701C
787C
3FFC
0F8C
ENDCHAR
STARTCHAR aring
ENCODING 229
SWIDTH 500 0
DWIDTH 16 0
BBX 14 24 0 0
BITMAP
07C0
0660
0460
0460
0660
07C0
0000
0000
3FF0
3FF8
1FFC
001C
001C
01FC
1FFC
3F1C
781C
701C
E01C
E01C
701C
787C
3FFC
0F8C
ENDCHAR
STARTCHAR ae
ENCODING 230
SWIDTH 833 0
DWIDTH 27 0
BBX 24 16 1 0
BITMAP
7FC1F0
7FF7FC
3FFFBE
003C07
003807
03FFFF
1FFFFF
7F3800
F03800
E03800
E03800
E03C00
E03E00
FCF7C0
7FF7FF
1FC1FF
ENDCHAR
STARTCHAR ccedilla
ENCODING 231
SWIDTH 500 0
DWIDTH 16 0
BBX 15 23 1 -7
BITMAP
0FFC
1FFC
3F00
7800
7000
E000
E000
E000
E000
7000
7000
3800
3C00
1FFC
07FE
01FC
0080
0180
01F0
0038
0038
0630
03E0
ENDCHAR
STARTCHAR egrave
ENCODING 232
SWIDTH 556 0
DWIDTH 18 0
BBX 16 22 1 0
BITMAP
0E00
0FC0
07F0
0070
0000
0000
07E0
1FF8
3F7C
780E
700E
7006
FFFF
FFFE
E000
E000
7000
7000
7800
3F00
1FFF
07FE
ENDCHAR
STARTCHAR eacute
ENCODING 233
SWIDTH 556 0
DWIDTH 18 0
BBX 16 22 1 0
BITMAP
0070
03F0
0FE0
0F00
0000
0000
07E0
1FF8
3F7C
780E
700E
7006
FFFF
FFFE
E000
E000
7000
7000
7800
3F00
1FFF
07FE
ENDCHAR
STARTCHAR ecircumflex
ENCODING 234
SWIDTH 556 0
DWIDTH 18 0
BBX 16 23 1 0
BITMAP
0180
03C0
07E0
0E70
1C38
0000
0000
07E0
1FF8
3F7C
780E
700E
7006
FFFF
FFFE
E000
E000
7000
7000
7800
3F00
1FFF
07FE
ENDCHAR
STARTCHAR edieresis
ENCODING 235
SWIDTH 556 0
DWIDTH 18 0
BBX 16 22 1 0
BITMAP
1C38
1C38
1C38
0810
0000
0000
07E0
1FF8
3F7C
780E
700E
7006
FFFF
FFFE
E000
E000
7000
7000
7800
3F00
1FFF
07FE
ENDCHAR
STARTCHAR igrave
ENCODING 236
SWIDTH 222 0
DWIDTH 7 0
BBX 9 22 -1 0
BITMAP
F000
FE00
3F80
0780
0000
0000
1C00
1C00
1C00
1C00
1C00
1C00
1C00
1C00
1C00
1C00
1C00
1C00
1C00
1C00
1C00
1C00
ENDCHAR
STARTCHAR iacute
ENCODING 237
SWIDTH 222 0
DWIDTH 7 0
BBX 9 22 -1 0
BITMAP
0780
3F80
FE00
F000
0000
0000
1C00
1C00
1C00
1C00
1C00
1C00
1C00
1C00
1C00
1C00
1C00
1C00
1C00
1C00
1C00
1C00
ENDCHAR
STARTCHAR icircumflex
ENCODING 238
SWIDTH 222 0
DWIDTH 7 0
BBX 9 23 -1 0
BITMAP
0C00
3E00
3700
6380
E180
0000
0000
1C00
1C00
1C00
1C00
1C00
1C00
1C00
1C00
1C00
1C00
1C00
1C00
1C00
1C00
1C00
1C00
ENDCHAR
STARTCHAR idieresis
ENCODING 239
SWIDTH 222 0
DWIDTH 7 0
BBX 11 22 -2 0
BITMAP
60C0
F1E0
F1E0
0000
0000
0000
0E00
0E00
0E00
0E00
0E00
0E00
0E00
0E00
0E00
0E00
0E00
0E00
0E00
0E00
0E00
0E00
ENDCHAR
STARTCHAR eth
ENCODING 240
SWIDTH 556 0
DWIDTH 18 0
BBX 15 23 1 0
BITMAP
1838
3F70
1FE0
03E0
0FF0
0C78
0038
001C
0FDC
1FEE
3C3E
781E
700E
600E
E006
E006
E00E
700E
700E
781C
3E78
1FF0
07E0
ENDCHAR
STARTCHAR ntilde
ENCODING 241
SWIDTH 556 0
DWIDTH 18 0
BBX 14 22 2 0
BITMAP
1810
3F10
27F0
00E0
0000
0000
C7C0
EFF0
FFF8
F838
F03C
E01C
E01C
E01C
E01C
E01C
E01C
E01C
E01C
E01C
E01C
E018
ENDCHAR
STARTCHAR ograve
ENCODING 242
SWIDTH 556 0
DWIDTH 18 0
BBX 16 22 1 0
BITMAP
0E00
0FC0
07F0
00F0
0000
0000
07C0
1FF0
3FF8
381C
700E
600E
E006
E007
E007
E006
600E
700E
781C
3FF8
1FF0
07E0
ENDCHAR
STARTCHAR oacute
ENCODING 243
SWIDTH 556 0
DWIDTH 18 0
BBX 16 22 1 0
BITMAP
0070
03F0
0FE0
0E00
0000
0000
07C0
1FF0
3FF8
381C
700E
600E
E006
E007
E007
E006
600E
700E
781C
3FF8
1FF0
07E0
ENDCHAR
STARTCHAR ocircumflex
ENCODING 244
SWIDTH 556 0
DWIDTH 18 0
BBX 16 23 1 0
BITMAP
0180
03C0
07E0
0E70
1C38
0000
0000
07C0
1FF0
3FF8
381C
700E
600E
E006
E007
E007
E006
600E
700E
781C
3FF8
1FF0
07E0
ENDCHAR
STARTCHAR otilde
ENCODING 245
SWIDTH 556 0
DWIDTH 18 0
BBX 16 22 1 0
BITMAP
0C08
1F88
13F8
2070
0000
0000
07C0
1FF0
3FF8
381C
700E
600E
E006
E007
E007
E006
600E
700E
781C
3FF8
1FF0
07E0
ENDCHAR
STARTCHAR odieresis
ENCODING 246
SWIDTH 556 0
DWIDTH 18 0
BBX 16 22 1 0
BITMAP
1C38
1C38
1C38
0810
0000
0000
07C0
1FF0
3FF8
381C
700E
600E
E006
E007
E007
E006
600E
700E
781C
3FF8
1FF0
07E0
ENDCHAR
STARTCHAR divide
ENCODING 247
SWIDTH 600 0
DWIDTH 19 0
BBX 17 18 1 -1
BITMAP
01C000
03E000
03E000
01E000
008000
000000
000000
FFFF80
FFFF80
FFFF80
000000
000000
000000
008000
01E000
03E000
03E000
01C000
ENDCHAR
STARTCHAR oslash
ENCODING 248
SWIDTH 556 0
DWIDTH 18 0
BBX 16 22 1 -3
BITMAP
0008
0018
0018
07F8
1FF0
3FF8
387C
70EE
60CE
E1C6
E187
E387
E306
670E
760E
7E1C
3EF8
1FF0
1FE0
3800
3000
3000
ENDCHAR
STARTCHAR ugrave
ENCODING 249
SWIDTH 556 0
DWIDTH 18 0
BBX 14 22 2 0
BITMAP
1C00
1F80
0FE0
00E0
0000
0000
E018
E01C
E01C
E01C
E01C
E01C
E01C
E01C
E01C
E01C
E01C
E03C
F07C
7FFC
3FDC
1F98
ENDCHAR
STARTCHAR uacute
ENCODING 250
SWIDTH 556 0
DWIDTH 18 0
BBX 14 22 2 0
BITMAP
01E0
07E0
1FC0
1C00
0000
0000
E018
E01C
E01C
E01C
E01C
E01C
E01C
E01C
E01C
E01C
E01C
E03C
F07C
7FFC
3FDC
1F98
ENDCHAR
STARTCHAR ucircumflex
ENCODING 251
SWIDTH 556 0
DWIDTH 18 0
BBX 14 23 2 0
BITMAP
0300
0780
0FC0
1CE0
3870
0000
0000
E018
E01C
E01C
E01C
E01C
E01C
E01C
E01C
E01C
E01C
E01C
E03C
F07C
7FFC
3FDC
1F98
ENDCHAR
STARTCHAR udieresis
ENCODING 252
SWIDTH 556 0
DWIDTH 18 0
BBX 14 22 2 0
BITMAP
3870
3870
3870
1020
0000
0000
E018
E01C
E01C
E01C
E01C
E01C
E01C
E01C
E01C
E01C
E01C
E03C
F07C
7FFC
3FDC
1F98
ENDCHAR
STARTCHAR yacute
ENCODING 253
SWIDTH 500 0
DWIDTH 16 0
BBX 15 29 1 -7
BITMAP
01E0
07E0
1FC0
1C00
0000
0000
C00C
E00E
E00E
E01C
E01C
E01C
701C
7038
7038
3838
3870
1C70
1CE0
0FE0
0FC0
0780
0780
0700
0E00
1E00
1C00
3800
3800
ENDCHAR
STARTCHAR thorn
ENCODING 254
SWIDTH 556 0
DWIDTH 18 0
BBX 15 29 2 -7
BITMAP
C000
E000
E000
E000
E000
E000
FF00
FFC0
FFF0
E0F8
E038
E01C
E01C
E01C
E00E
E00E
E01C
E01C
E03C
FFF8
FFF0
FFC0
E000
E000
E000
E000
E000
E000
C000
ENDCHAR
STARTCHAR ydieresis
ENCODING 255
SWIDTH 500 0
DWIDTH 16 0
BBX 15 29 1 -7
BITMAP
3870
3870
3870
1020
0000
0000
C00C
E00E
E00E
E01C
E01C
E01C
701C
7038
7038
3838
3870
1C70
1CE0
0FE0
0FC0
0780
0780
0700
0E00
1E00
1C00
3800
3800
ENDCHAR
STARTCHAR .notdef
ENCODING -1
SWIDTH 500 0
DWIDTH 16 0
BBX 16 23 0 0
BITMAP
FFFF
FFFF
E007
F00F
F00F
D81B
CC33
CC33
C663
C2C3
C3C3
C183
C383
C3C3
C663
C423
CC33
D81B
D00B
F00F
E007
FFFF
FFFF
ENDCHAR
STARTCHAR quoteright
ENCODING -1
SWIDTH 222 0
DWIDTH 7 0
BBX 5 8 1 14
BITMAP
38
38
38
70
70
E0
E0
C0
ENDCHAR
STARTCHAR quoteleft
ENCODING -1
SWIDTH 222 0
DWIDTH 7 0
BBX 5 8 1 14
BITMAP
C0
E0
E0
70
70
30
38
38
ENDCHAR
STARTCHAR fraction
ENCODING -1
SWIDTH 167 0
DWIDTH 5 0
BBX 16 22 -5 0
BITMAP
0003
0007
000E
000C
001C
0038
0030
0060
00E0
01C0
0180
0380
0700
0600
0E00
1C00
3800
3000
7000
E000
C000
C000
ENDCHAR
STARTCHAR florin
ENCODING -1
SWIDTH 611 0
DWIDTH 20 0
BBX 19 29 0 -7
BITMAP
0007E0
000FE0
001FC0
003800
003800
003000
007000
007000
07FE00
07FF00
07FF00
006000
00E000
00E000
00E000
00E000
00E000
00E000
00C000
01C000
01C000
01C000
01C000
018000
038000
078000
7F0000
FE0000
7C0000
ENDCHAR
STARTCHAR quotedblleft
ENCODING -1
SWIDTH 389 0
DWIDTH 12 0
BBX 10 8 1 14
BITMAP
C700
E700
E700
E380
7380
71C0
39C0
38C0
ENDCHAR
STARTCHAR guilsinglleft
ENCODING -1
SWIDTH 278 0
DWIDTH 9 0
BBX 5 12 2 2
BITMAP
18
38
30
70
60
E0
E0
70
70
38
38
18
ENDCHAR
STARTCHAR guilsinglright
ENCODING -1
SWIDTH 278 0
DWIDTH 9 0
BBX 5 12 2 2
BITMAP
C0
E0
60
70
30
38
38
70
70
E0
E0
C0
ENDCHAR
STARTCHAR fi
ENCODING -1
SWIDTH 500 0
DWIDTH 16 0
BBX 14 22 0 0
BITMAP
07FC
0FFC
1FFC
1C0C
180C
1800
7FFC
FFFC
7FFC
180C
180C
180C
180C
180C
180C
180C
180C
180C
180C
180C
180C
180C
ENDCHAR
STARTCHAR fl
ENCODING -1
SWIDTH 500 0
DWIDTH 16 0
BBX 14 22 0 0
BITMAP
07FC
0FFC
1FFC
1C0C
180C
180C
7FCC
FFCC
3F8C
180C
180C
180C
180C
180C
180C
180C
180C
180C
180C
180C
180C
180C
ENDCHAR
STARTCHAR endash
ENCODING -1
SWIDTH 500 0
DWIDTH 16 0
BBX 16 2 0 7
BITMAP
FFFF
FFFF
ENDCHAR
STARTCHAR dagger
ENCODING -1
SWIDTH 389 0
DWIDTH 12 0
BBX 10 22 1 0
BITMAP
0C00
0E00
0E00
0E00
0E00
7FC0
FFC0
FFC0
0C00
0C00
0E00
0E00
0E00
0E00
0E00
0E00
0E00
0E00
0E00
0E00
0E00
0C00
ENDCHAR
STARTCHAR daggerdbl
ENCODING -1
SWIDTH 389 0
DWIDTH 12 0
BBX 10 22 1 0
BITMAP
0C00
0E00
0E00
0E00
0E00
7FC0
FFC0
FFC0
0C00
0C00
0C00
0C00
0C00
0C00
FFC0
FFC0
7FC0
0E00
0E00
0E00
0E00
0C00
ENDCHAR
STARTCHAR bullet
ENCODING -1
SWIDTH 500 0
DWIDTH 16 0
BBX 12 11 2 6
BITMAP
0F00
3FC0
7FE0
7FE0
7FE0
FFF0
7FE0
7FE0
7FE0
3FC0
0F00
ENDCHAR
STARTCHAR quotesinglbase
ENCODING -1
SWIDTH 222 0
DWIDTH 7 0
BBX 5 8 1 -4
BITMAP
38
38
70
70
60
E0
E0
C0
ENDCHAR
STARTCHAR quotedblbase
ENCODING -1
SWIDTH 389 0
DWIDTH 12 0
BBX 10 8 1 -4
BITMAP
39C0
39C0
71C0
7380
6380
E300
C700
C600
ENDCHAR
STARTCHAR quotedblright
ENCODING -1
SWIDTH 389 0
DWIDTH 12 0
BBX 10 8 1 14
BITMAP
30C0
39C0
71C0
7380
7380
E300
E700
C700
ENDCHAR
STARTCHAR ellipsis
ENCODING -1
SWIDTH 1000 0
DWIDTH 32 0
BBX 24 4 4 0
BITMAP
000002
E01807
E03C07
E01807
ENDCHAR
STARTCHAR perthousand
ENCODING -1
SWIDTH 1000 0
DWIDTH 32 0
BBX 32 22 0 0
BITMAP
1E030000
3F830000
73870000
E1C60000
C0CE0000
C0CC0000
C0DC0000
E1D80000
73B80000
3FB00000
1E700000
00600000
00E7E0FC
00CFF1FE
01CE3B8E
019C3B87
03981B03
03181B03
071C3B87
060E71CE
0E0FF1FE
0403C078
ENDCHAR
STARTCHAR circumflex
ENCODING -1
SWIDTH 222 0
DWIDTH 7 0
BBX 9 5 -1 18
BITMAP
1C00
3E00
7700
E380
C180
ENDCHAR
STARTCHAR tilde
ENCODING -1
SWIDTH 222 0
DWIDTH 7 0
BBX 11 4 -2 19
BITMAP
0020
7C60
7FE0
C7C0
ENDCHAR
STARTCHAR breve
ENCODING -1
SWIDTH 222 0
DWIDTH 7 0
BBX 9 5 -1 18
BITMAP
8080
8080
E380
7F00
3E00
ENDCHAR
STARTCHAR dotaccent
ENCODING -1
SWIDTH 222 0
DWIDTH 7 0
BBX 3 4 2 18
BITMAP
E0
E0
E0
40
ENDCHAR
STARTCHAR ring
ENCODING -1
SWIDTH 222 0
DWIDTH 7 0
BBX 7 6 0 18
BITMAP
7C
C6
C6
C6
6C
38
ENDCHAR
STARTCHAR hungarumlaut
ENCODING -1
SWIDTH 222 0
DWIDTH 7 0
BBX 12 8 -2 16
BITMAP
0C30
1C70
3CF0
38E0
71C0
E380
C300
0200
ENDCHAR
STARTCHAR ogonek
ENCODING -1
SWIDTH 222 0
DWIDTH 7 0
BBX 8 7 -1 -7
BITMAP
0F
38
60
E0
E1
FF
7C
ENDCHAR
STARTCHAR caron
ENCODING -1
SWIDTH 222 0
DWIDTH 7 0
BBX 9 5 -1 18
BITMAP
C180
6380
7700
3E00
1C00
ENDCHAR
STARTCHAR emdash
ENCODING -1
SWIDTH 1000 0
DWIDTH 32 0
BBX 32 2 0 7
BITMAP
FFFFFFFF
FFFFFFFF
ENDCHAR
STARTCHAR Lslash
ENCODING -1
SWIDTH 444 0
DWIDTH 14 0
BBX 15 22 -1 0
BITMAP
0C00
0C00
0C00
0C00
0C00
0C00
0C00
0C00
0DE0
0FC0
3F00
FC00
EC00
0C00
0C00
0C00
0C00
0C00
0C00
0FFC
0FFE
0FFE
ENDCHAR
STARTCHAR OE
ENCODING -1
SWIDTH 1000 0
DWIDTH 32 0
BBX 30 22 1 0
BITMAP
01F87FFC
07FEFFFC
1FBFFFF8
1E07E000
3C03E000
7801E000
7001FFF8
F000FFFC
E000FFF8
E000E000
E000E000
E000E000
E000E000
E000E000
F000E000
7001E000
7801E000
3803E000
3E07E000
1FFFFFF8
0FFEFFFC
03F87FFC
ENDCHAR
STARTCHAR dotlessi
ENCODING -1
SWIDTH 222 0
DWIDTH 7 0
BBX 3 16 2 0
BITMAP
E0
E0
E0
E0
E0
E0
E0
E0
E0
E0
E0
E0
E0
E0
E0
E0
ENDCHAR
STARTCHAR lslash
ENCODING -1
SWIDTH 222 0
DWIDTH 7 0
BBX 9 22 -1 0
BITMAP
1C00
1C00
1C00
1C00
1C00
1C00
1C00
1F80
1F00
3C00
FC00
5C00
1C00
1C00
1C00
1C00
1C00
1C00
1C00
1C00
1C00
1C00
ENDCHAR
STARTCHAR oe
ENCODING -1
SWIDTH 944 0
DWIDTH 30 0
BBX 28 16 1 0
BITMAP
07C03E00
1FF0FF80
3FF9F7C0
781F80E0
700F0060
600F0070
E00FFFF0
E007FFF0
E0070000
E0070000
600F0000
700F0000
781F8000
3FF9F000
1FF0FFF0
07E07FF0
ENDCHAR
STARTCHAR trademark
ENCODING -1
SWIDTH 990 0
DWIDTH 32 0
BBX 28 13 2 9
BITMAP
FFC780F0
FFC7C0F0
0C07C1F0
0C07C1F0
0C07E3F0
0C076370
0C076370
0C077770
0C073670
0C073E70
0C071C70
0C071C70
0C071C70
ENDCHAR
STARTCHAR minus
ENCODING -1
SWIDTH 600 0
DWIDTH 19 0
BBX 17 3 1 7
BITMAP
FFFF80
FFFF80
FFFF80
ENDCHAR
STARTCHAR Scaron
ENCODING -1
SWIDTH 611 0
DWIDTH 20 0
BBX 17 28 1 0
BITMAP
0C1C00
073800
037000
03E000
01C000
000000
1FFC00
7FFE00
7FFC00
E00000
E00000
F00000
7F8000
3FFC00
0FFE00
003F00
000780
000380
000380
000380
000380
000380
000380
000780
000F00
7FFE00
FFFC00
FFF000
ENDCHAR
STARTCHAR Ydieresis
ENCODING -1
SWIDTH 556 0
DWIDTH 18 0
BBX 16 27 1 0
BITMAP
0C18
1E38
1C38
0810
0000
C007
E007
E007
F00E
700E
781C
381C
1C38
1E78
0FF0
07E0
0380
0380
0380
0380
0380
0380
0380
0380
0380
0380
0180
ENDCHAR
STARTCHAR Zcaron
ENCODING -1
SWIDTH 500 0
DWIDTH 16 0
BBX 14 28 1 0
BITMAP
1830
1C70
0EE0
07C0
0380
0000
7FF8
7FF8
3FFC
0018
0038
0038
0078
0070
00E0
01E0
03C0
0780
0F00
1E00
3C00
7800
7000
F000
E000
FFF8
FFFC
7FFC
ENDCHAR
STARTCHAR scaron
ENCODING -1
SWIDTH 500 0
DWIDTH 16 0
BBX 14 23 1 0
BITMAP
3870
1CE0
0FC0
0780
0300
0000
0000
3FF0
7FF8
FFF0
E000
F000
7FC0
3FF0
03F8
001C
001C
001C
001C
001C
7FF8
FFF0
FFE0
ENDCHAR
STARTCHAR zcaron
ENCODING -1
SWIDTH 444 0
DWIDTH 14 0
BBX 13 23 1 0
BITMAP
3060
38C0
1DC0
0F80
0700
0000
0000
7FF0
7FF0
3FF0
0070
00F0
01E0
03C0
0F80
1E00
3C00
7800
F000
E000
FFE0
FFF8
FFF0
ENDCHAR
STARTCHAR Delta
ENCODING -1
SWIDTH 707 0
DWIDTH 23 0
BBX 21 22 1 0
BITMAP
007000
00F800
00F800
01D800
019C00
039C00
038E00
030E00
070700
060700
0E0300
0C0380
1C0380
1C01C0
1801C0
3800E0
3000E0
700060
600070
E00070
FFFFF8
FFFFF8
ENDCHAR
STARTCHAR Omega
ENCODING -1
SWIDTH 795 0
DWIDTH 25 0
BBX 22 22 2 0
BITMAP
01FC00
07FF00
0F07C0
1C01E0
3800E0
700070
700038
600038
E00038
E00038
E00018
E00018
E00038
600038
600030
700030
300070
1800E0
1C00C0
0E0180
FF07FC
FF07FC
ENDCHAR
STARTCHAR pi
ENCODING -1
SWIDTH 621 0
DWIDTH 20 0
BBX 19 16 0 0
BITMAP
7FFFE0
FFFFE0
060300
0E0300
0E0300
0E0300
0E0300
0E0300
0C0300
0C0300
0C0300
1C0300
1C0300
1C0300
180300
380380
ENDCHAR
STARTCHAR Euro
ENCODING -1
SWIDTH 611 0
DWIDTH 20 0
BBX 18 22 2 0
BITMAP
01FF80
07FF80
0FFF00
1E0000
1C0000
1C0000
FFF800
FFF800
380000
380000
380000
FFF800
FFF800
1C0000
1C0000
0E0000
0F0000
078000
03E000
01FF80
007FC0
001F80
ENDCHAR
STARTCHAR estimated
ENCODING -1
SWIDTH 844 0
DWIDTH 27 0
BBX 25 22 1 0
BITMAP
007F0000
0380E000
06003000
18000800
38000C00
38000E00
78000F00
78000F00
F8000F00
F8000F80
F8000F80
FFFFFF80
F8000000
F8000000
78000000
78000000
38000000
38000000
18000C00
0C001000
03006000
00FF8000
ENDCHAR
STARTCHAR partialdiff
ENCODING -1
SWIDTH 592 0
DWIDTH 19 0
BBX 16 24 1 0
BITMAP
0FC0
3FF0
3078
001C
000E
000E
0006
0007
0007
07C3
1FF3
3C3B
780F
7007
6007
E007
E007
E006
600E
701C
701C
3878
1FF0
07C0
ENDCHAR
STARTCHAR product
ENCODING -1
SWIDTH 758 0
DWIDTH 24 0
BBX 22 24 1 -3
BITMAP
FFFFFC
FFFFFC
0C00E0
0C00E0
0C00E0
0C00E0
0C00E0
0C00E0
0C00E0
0C00E0
0C00E0
0C00E0
0C00E0
0C00E0
0C00E0
0C00E0
0C00E0
0C00E0
0C00E0
0C00E0
0C00E0
0C00E0
0C00E0
0C00E0
ENDCHAR
STARTCHAR summation
ENCODING -1
SWIDTH 601 0
DWIDTH 19 0
BBX 17 24 1 -3
BITMAP
FFFF80
FFFF80
700000
380000
1C0000
1E0000
0F0000
070000
038000
01C000
00E000
007000
006000
00C000
018000
038000
070000
0E0000
1C0000
380000
700000
600000
FFFF80
FFFF80
ENDCHAR
STARTCHAR uni2219
ENCODING -1
SWIDTH 305 0
DWIDTH 10 0
BBX 4 4 3 6
BITMAP
60
F0
E0
40
ENDCHAR
STARTCHAR radical
ENCODING -1
SWIDTH 612 0
DWIDTH 20 0
BBX 19 30 1 -5
BITMAP
000060
0000C0
0000C0
0000C0
0000C0
000180
000180
000180
000180
000300
000300
000300
000200
080600
380600
FC0600
0C0400
0C0C00
0E0C00
060C00
060800
071800
031800
039800
019000
01B000
01F000
00F000
00E000
006000
ENDCHAR
STARTCHAR infinity
ENCODING -1
SWIDTH 810 0
DWIDTH 26 0
BBX 22 10 2 4
BITMAP
1E01F0
7F87F8
C0CE0C
C0780C
80300C
80300C
C0780C
C1CE1C
7F87F8
3E01E0
ENDCHAR
STARTCHAR integral
ENCODING -1
SWIDTH 373 0
DWIDTH 12 0
BBX 11 31 0 -5
BITMAP
01E0
03E0
0700
0600
0600
0600
0600
0600
0600
0600
0600
0600
0600
0600
0600
0600
0600
0600
0600
0600
0600
0600
0600
0600
0600
0600
0600
0E00
0C00
7C00
F800
ENDCHAR
STARTCHAR approxequal
ENCODING -1
SWIDTH 605 0
DWIDTH 19 0
BBX 16 10 2 4
BITMAP
0800
7F03
E386
80FC
0010
0000
3C02
7F02
C1FE
8078
ENDCHAR
STARTCHAR notequal
ENCODING -1
SWIDTH 605 0
DWIDTH 19 0
BBX 16 16 2 1
BITMAP
0020
0020
0060
0040
FFFF
FFFF
0180
0180
0100
0300
FFFF
FFFF
0400
0C00
0800
1800
ENDCHAR
STARTCHAR lessequal
ENCODING -1
SWIDTH 605 0
DWIDTH 19 0
BBX 16 19 2 0
BITMAP
0003
001F
0078
01E0
0780
1E00
7800
C000
E000
3800
0F00
03C0
00F0
003C
000F
0003
0000
FFFF
FFFF
ENDCHAR
STARTCHAR greaterequal
ENCODING -1
SWIDTH 605 0
DWIDTH 19 0
BBX 16 19 2 0
BITMAP
C000
F000
3C00
0F00
03C0
0070
001E
0007
000F
003C
00F0
03C0
0F00
7800
E000
8000
0000
FFFF
FFFF
ENDCHAR
STARTCHAR lozenge
ENCODING -1
SWIDTH 613 0
DWIDTH 20 0
BBX 16 25 2 -2
BITMAP
0380
03C0
07C0
06E0
0E60
0C70
1830
1818
301C
700C
600E
E006
C007
E006
600E
700C
301C
1818
1830
0C30
0E60
06E0
07C0
03C0
0380
ENDCHAR
STARTCHAR uni02C9
ENCODING -1
SWIDTH 222 0
DWIDTH 7 0
BBX 9 2 -1 20
BITMAP
FF80
FF80
ENDCHAR
STARTCHAR uni03A9
ENCODING -1
SWIDTH 795 0
DWIDTH 25 0
BBX 22 22 2 0
BITMAP
01FC00
07FF00
0F07C0
1C01E0
3800E0
700070
700038
600038
E00038
E00038
E00018
E00018
E00038
600038
600030
700030
300070
1800E0
1C00C0
0E0180
FF07FC
FF07FC
ENDCHAR
STARTCHAR afii61289
ENCODING -1
SWIDTH 528 0
DWIDTH 17 0
BBX 15 24 1 0
BITMAP
03C0
07E0
0E30
1C30
1C30
1830
1830
1830
1830
1860
18E0
18C0
1980
1B00
1E00
1C00
3800
7800
D800
1C06
1C0E
0E1C
0FF8
03E0
ENDCHAR
STARTCHAR uni03BC
ENCODING -1
SWIDTH 556 0
DWIDTH 18 0
BBX 14 23 2 -7
BITMAP
E018
E01C
E01C
E01C
E01C
E01C
E01C
E01C
E01C
E01C
E01C
E03C
F07C
FFFC
FFDC
FF98
E000
E000
E000
E000
E000
E000
E000
ENDCHAR
STARTCHAR uni2215
ENCODING -1
SWIDTH 167 0
DWIDTH 5 0
BBX 16 22 -5 0
BITMAP
0003
0007
000E
000C
001C
0038
0030
0060
00E0
01C0
0180
0380
0700
0600
0E00
1C00
3800
3000
7000
E000
C000
C000
ENDCHAR
ENDFONT
